Encoders Notes: The film are Ps3, Xbox 360 & PC Friendly.They can also be burnt to disc via programs like Convert X to DVD.

neeqo0.jpg

Format : AVI
Format/Info : Audio Video Interleave
File size : 1.46 GiB
Duration : 1h 45mn
Overall bit rate : 1 986 Kbps
Writing application : VirtualDubMod 1.5.4.1 (build 2178/release)
Writing library : VirtualDubMod build 2178/release


2lafuxe.jpg

Video
ID : 0
Format : MPEG-4 Visual
Format profile : Simple@L0
Format settings, BVOP : No
Format settings, QPel : No
Format settings, GMC : No warppoints
Format settings, Matrix : Default (H.263)
Codec ID : XVID
Codec ID/Hint : XviD
Duration : 1h 45mn
Bit rate : 1 531 Kbps
Width : 640 pixels
Height : 272 pixels
Display aspect ratio : 2.35:1
Frame rate : 23.976 fps
Resolution : 8 bits
Colorimetry : 4:2:0
Scan type : Progressive
Bits/(Pixel*Frame) : 0.367
Stream size : 1.13 GiB (77%)
Writing library : XviD 1.0.1 (UTC 2004-06-05)


14l2dma.jpg

Audio
ID : 1
Format : AC-3
Format/Info : Audio Coding 3
Codec ID : 2000
Duration : 1h 45mn
Bit rate mode : Constant
Bit rate : 448 Kbps
Channel(s) : 6 channels
Channel positions : Front: L C R, Surround: L R, LFE
Sampling rate : 48.0 KHz
Video delay : 33ms
Stream size : 338 MiB (23%)
Alignment : Split accross interleaves
Interleave, duration : 83 ms (2.00 video frames)
Interleave, preload duration : 500 ms
Language : English


x232va.jpg

In 2054, Paris is a labyrinth where all movement is monitored and recorded. Casting a shadow over everything is the city's largest company, Avalon, which insinuates itself into every aspect of contemporary life to sell its primary export -- youth and beauty. In this world of stark contrasts and rigid laws the populace is kept in line and accounted for.

34g9650.jpg

Daniel Craig ... Barthélémy Karas (voice)

Romola Garai ... Ilona Tasuiev (voice)

Ian Holm ... Jonas Muller (voice)
Kevork Malikyan ... Nusrat Farfella (voice)
Catherine McCormack ... Bislane Tasuiev (voice)

Jonathan Pryce ... Paul Dellenbach (voice)
Robert Dauney ... Karas (voice)

Crystal Shepherd-Cross ... Bislane (voice)
Isabelle Van Waes ... Ilona (voice) (as Isabelle Van Waess)
Max Hayter ... Dellenbach (voice)
Marco Lorenzini ... Muller (voice)
Jerome Causse ... Amiel (voice)
Clémentine Baert ... Nurses (voice)

Chris Bearne ... Parisian (voice)
David Benito ... Nayhib (voice)